# AST/ASF file generated using VICON BodyLanguage
# -----------------------------------------------
:version 1.10
:name VICON
:units
  mass 1.0
  length 0.45
  angle deg
:documentation
   .ast/.asf automatically generated from VICON data using
   VICON BodyBuilder and BodyLanguage model FoxedUp or BRILLIANT.MOD
:root
   order TX TY TZ RX RY RZ
   axis XYZ
   position 0 0 0  
   orientation 0 0 0 
:bonedata
  begin
     id 1 
     name lhipjoint
     direction 0.700308 -0.549349 0.455834 
     length 2.59063 
     axis 0 0 0  XYZ
  end
  begin
     id 2 
     name lfemur
     direction 0.34202 -0.939693 0  
     length 6.31066  
     axis 0 0 20  XYZ
    dof rx ry rz
    limits (-160.0 20.0)
           (-70.0 70.0)
           (-60.0 70.0)
  end
  begin
     id 3 
     name ltibia
     direction 0.34202 -0.939693 0   
     length 7.36093   
     axis 0 0 20   XYZ
    dof rx
    limits (-10.0 170.0)
  end
  begin
     id 4 
     name lfoot
     direction 0.0905332 -0.248738 0.96433   
     length 2.0233   
     axis -90 7.62852e-016 20   XYZ
    dof rx rz
    limits (-45.0 90.0)
           (-70.0 20.0)
  end
  begin
     id 5 
     name ltoes
     direction 1.53573e-011 -4.21855e-011 1   
     length 1.01524   
     axis -90 7.62852e-016 20   XYZ
    dof rx
    limits (-90.0 20.0)
  end
  begin
     id 6 
     name rhipjoint
     direction -0.61416 -0.607328 0.503944   
     length 2.34332  
     axis 0 0 0  XYZ 
  end
  begin
     id 7 
     name rfemur
     direction -0.34202 -0.939693 0   
     length 6.58548   
     axis 0 0 -20   XYZ
    dof rx ry rz
    limits (-160.0 20.0)
           (-70.0 70.0)
           (-70.0 60.0)
  end
  begin
     id 8 
     name rtibia
     direction -0.34202 -0.939693 0   
     length 7.20707   
     axis 0 0 -20   XYZ
    dof rx
    limits (-10.0 170.0)
 end
 begin
     id 9 
     name rfoot
     direction -0.136772 -0.375778 0.916561   
     length 1.92184  
     axis -90 -7.62852e-016 -20   XYZ
    dof rx rz
    limits (-45.0 90.0)
           (-20.0 70.0)
  end
  begin
     id 10 
     name rtoes
     direction -1.53535e-011 -4.21828e-011 1   
     length 0.951089   
     axis -90 -7.62852e-016 -20   XYZ
    dof rx
    limits (-90.0 20.0)
  end
  begin
     id 11 
     name lowerback
     direction -0.0444974 0.988086 -0.147332   
     length 1.9609   
     axis 0 0 0   XYZ
    dof rx ry rz
    limits (-20.0 45.0)
           (-30.0 30.0)
           (-30.0 30.0)
  end
  begin
     id 12 
     name upperback
     direction 0.00613146 0.999513 0.0306081   
     length 1.94944   
     axis 0 0 0   XYZ
    dof rx ry rz
    limits (-20.0 45.0)
           (-30.0 30.0)
           (-30.0 30.0)
  end
  begin
     id 13 
     name thorax
     direction 0.0254621 0.994518 0.101418   
     length 2.0119   
     axis 0 0 0   XYZ
    dof rx ry rz
    limits (-20.0 45.0)
           (-30.0 30.0)
           (-30.0 30.0)
  end
  begin
     id 14 
     name lowerneck
     direction 0.0168698 0.977854 0.208608   
     length 1.6375   
     axis 0 0 0   XYZ
    dof rx ry rz
    limits (-20.0 45.0)
           (-30.0 30.0)
           (-30.0 30.0)
  end
  begin
     id 15 
     name upperneck
     direction -0.0283988 0.989338 -0.142843   
     length 1.6851   
     axis 0 0 0   XYZ
    dof rx ry rz
    limits (-20.0 45.0)
           (-30.0 30.0)
           (-30.0 30.0)
  end
  begin
     id 16
     name head
     direction -0.0129422 0.99741 -0.0707489  
     length 1.69029  
     axis 0 0 0   XYZ
    dof rx ry rz
    limits (-20.0 45.0)
           (-30.0 30.0)
           (-30.0 30.0)
  end
  begin
     id 17 
     name lclavicle
     direction 0.820295 0.564628 -0.0911715  
     length 3.16484  
     axis 0 0 0   XYZ
    dof ry rz
    limits (-20.0 10.0)
           (0.0 20.0)
  end
  begin
     id 18 
     name lhumerus
     direction 1 -4.48969e-011 1.00186e-027   
     length 5.17853   
     axis 180 -30 -90   XYZ
    dof rx ry rz
    limits (-60.0 90.0)
           (-90.0 90.0)
           (-90.0 90.0)
  end
  begin
     id 19
     name lradius
     direction 1 -4.48966e-011 -1.52922e-027   
     length 3.40399   
     axis 180 -30 -90   XYZ
    dof rx
    limits (-10.0 170.0)
  end
  begin
     id 20
     name lwrist
     direction 1 -4.48981e-011 -3.80893e-027   
     length 1.70199   
     axis 1.1049e-015 90 90   XYZ
    dof ry
    limits (-180.0 0.0)
 end
  begin
     id 21 
     name lhand
     direction 1 -4.48957e-011 -7.61786e-027   
     length 0.708964   
     axis 4.86085e-015 90 90   XYZ
    dof rx rz
    limits (-90.0 90.0)
           (-45.0 45.0)
  end
  begin
     id 22 
     name lfingers
     direction 1 -4.48929e-011 -1.52357e-026   
     length 0.571585   
     axis 9.7217e-015 90 90   XYZ
    dof rx
    limits (0.0 90.0)
  end
  begin
     id 23
     name lthumb
     direction 0.707107 -6.34905e-011 0.707107   
     length 0.820685   
     axis -90 45 2.85299e-015   XYZ
    dof rx rz
    limits (-45.0 45.0)
           (-45.0 45.0)
  end
  begin
     id 24 
     name rclavicle
     direction -0.858602 0.463947 -0.218075   
     length 3.35137  
     axis 0 0 0   XYZ 
    dof ry rz
    limits (-10.0 20.0)
           (-20.0 0.0)
  end
  begin
     id 25 
     name rhumerus
     direction -1 -4.48969e-011 -1.98511e-027  
     length 5.42351   
     axis 180 30 90   XYZ
    dof rx ry rz
    limits (-90.0 60.0)
           (-90.0 90.0)
           (-90.0 90.0)
  end
  begin
     id 26 
     name rradius
     direction -1 -4.48961e-011 -2.82624e-027   
     length 3.42066   
     axis 180 30 90   XYZ
    dof rx
    limits (-10.0 170.0)
  end
  begin
     id 27 
     name rwrist
     direction -1 -4.48966e-011 -3.80893e-027   
     length 1.71033   
     axis 1.1049e-015 -90 -90   XYZ
    dof ry
    limits (-180.0 0.0)
  end
  begin
     id 28
     name rhand
     direction -1 -4.48964e-011 -7.61786e-027   
     length 0.743608   
     axis 4.86085e-015 -90 -90   XYZ
    dof rx rz
    limits (-90.0 90.0)
           (-45.0 45.0)
  end
  begin
     id 29
     name rfingers
     direction -1 -4.48961e-011 -1.52357e-026   
     length 0.599516   
     axis 9.7217e-015 -90 -90   XYZ
    dof rx
    limits (0.0 90.0)
  end
  begin
     id 30
     name rthumb
     direction -0.707107 -6.34913e-011 0.707107   
     length 0.860789   
     axis -90 -45 -2.85299e-015   XYZ
    dof rx rz
    limits (-45.0 45.0)
           (-45.0 45.0)
  end
:hierarchy
  begin
    root lhipjoint rhipjoint lowerback
    lhipjoint lfemur
    lfemur ltibia
    ltibia lfoot
    lfoot ltoes
    rhipjoint rfemur
    rfemur rtibia
    rtibia rfoot
    rfoot rtoes
    lowerback upperback
    upperback thorax
    thorax lowerneck lclavicle rclavicle
    lowerneck upperneck
    upperneck head
    lclavicle lhumerus
    lhumerus lradius
    lradius lwrist
    lwrist lhand lthumb
    lhand lfingers
    rclavicle rhumerus
    rhumerus rradius
    rradius rwrist
    rwrist rhand rthumb
    rhand rfingers
  end

#!OML:ASF E:\mmandel\Project 1\Capture day 1\Session 2\Subject.ASF
:FULLY-SPECIFIED
:DEGREES
288
root -1.64311 1.85422 -7.40731 -56.8934 49.4391 34.1023
lowerback 17.8914 0.428182 9.37656
upperback 12.299 2.36573 -0.846624
thorax 3.79287 2.12825 -6.50518
lowerneck -3.54254 2.82087 7.7031
upperneck 45.5771 7.10198 -4.6625
head 18.1748 4.72732 -2.19269
rclavicle 2.70347e-014 -2.70347e-014
rhumerus 18.5798 -9.89305 -89.873
rradius 5.31258
rwrist 32.8832
rhand -1.34641 25.1432
rfingers 7.12502
rthumb 24.3001 -3.33663
lclavicle 2.70347e-014 -2.70347e-014
lhumerus 11.083 -16.0719 65.9977
lradius 16.1224
lwrist 1.26154
lhand -23.7679 -43.0039
lfingers 7.12502
lthumb 2.70148 -13.0413
rfemur -18.8568 -6.81045 16.4565
rtibia 30.2439
rfoot -3.38181 -22.7851
rtoes 1.77383
lfemur -34.1308 32.8477 0.651231
ltibia 88.9573
lfoot 28.5833 -17.5264
ltoes 3.58787
289
root -1.62019 1.84837 -7.41183 -56.5046 49.286 34.3817
lowerback 18.6316 0.430349 9.38517
upperback 12.3521 2.46071 -1.02059
thorax 3.50238 2.18362 -6.74328
lowerneck -3.54555 2.79706 7.75646
upperneck 45.6419 7.06943 -4.67711
head 18.218 4.7201 -2.21611
rclavicle -5.88403e-014 -4.92986e-014
rhumerus 18.396 -9.85085 -90.265
rradius 5.45838
rwrist 33.0904
rhand -1.15132 25.5031
rfingers 7.12502
rthumb 24.4872 -2.95153
lclavicle -5.88403e-014 -4.92986e-014
lhumerus 11.1568 -14.5836 66.2145
lradius 15.4945
lwrist -0.0577351
lhand -23.926 -42.9274
lfingers 7.12502
lthumb 2.54883 -12.9629
rfemur -19.0635 -6.03732 16.9503
rtibia 30.2087
rfoot -3.05008 -22.5452
rtoes 0.802731
lfemur -34.2464 33.0038 0.867612
ltibia 88.8682
lfoot 28.7351 -17.1694
ltoes 5.58174
290
root -1.59134 1.84945 -7.41112 -56.2954 49.149 34.5155
lowerback 19.2817 0.438314 9.5588
upperback 12.4481 2.58187 -1.24221
thorax 3.33219 2.27541 -7.12818
lowerneck -3.64728 2.72722 7.94899
upperneck 45.8329 6.90675 -4.61814
head 18.3589 4.69493 -2.24872
rclavicle 7.15625e-014 -1.90833e-014
rhumerus 18.2661 -10.0881 -90.6173
rradius 5.66629
rwrist 33.2424
rhand -1.01666 25.9058
rfingers 7.12502
rthumb 24.6162 -2.53126
lclavicle 7.15625e-014 -1.90833e-014
lhumerus 11.3745 -13.017 66.4478
lradius 14.8448
lwrist -1.62039
lhand -24.1045 -42.9547
lfingers 7.12502
lthumb 2.37639 -12.9882
rfemur -19.1389 -5.32162 17.477
rtibia 30.1957
rfoot -3.08133 -22.2443
rtoes -0.949475
lfemur -34.2173 32.9414 1.16665
ltibia 88.6572
lfoot 28.9211 -16.4129
ltoes 8.53003
291
root -1.5428 1.84433 -7.42687 -56.2084 48.6061 35.1109
lowerback 20.5889 0.403605 9.89595
upperback 12.6662 2.75276 -1.38672
thorax 2.99389 2.40722 -7.56165
lowerneck -3.86559 2.78472 7.73413
upperneck 45.9506 6.92328 -4.35535
head 18.4674 4.68962 -2.07688
rclavicle -7.79236e-014 8.11041e-014
rhumerus 18.3845 -9.99526 -90.8649
rradius 5.78209
rwrist 33.4484
rhand -0.78284 26.1165
rfingers 7.12502
rthumb 24.8403 -2.28989
lclavicle -7.79236e-014 8.11041e-014
lhumerus 11.5537 -10.469 67.0511
lradius 14.0959
lwrist -3.70362
lhand -24.143 -43.0119
lfingers 7.12502
lthumb 2.33923 -13.045
rfemur -18.8697 -4.58774 18.1536
rtibia 30.1802
rfoot -2.43507 -21.841
rtoes -1.11957
lfemur -33.3765 33.296 2.11843
ltibia 88.5895
lfoot 28.4638 -16.8627
ltoes 8.15245
292
root -1.54266 1.85654 -7.40889 -56.5304 48.6225 33.9845
lowerback 20.5158 0.305257 10.0433
upperback 12.7293 2.63987 -1.28056
thorax 3.08394 2.36204 -7.50457
lowerneck -4.00314 2.75513 7.67945
upperneck 45.9182 6.77698 -4.16359
head 18.4515 4.63053 -1.99756
rclavicle 6.99722e-014 4.92986e-014
rhumerus 18.4703 -10.0967 -91.1212
rradius 5.85201
rwrist 33.6688
rhand -0.843374 26.1769
rfingers 7.12502
rthumb 24.7823 -2.23748
lclavicle 6.99722e-014 4.92986e-014
lhumerus 11.6872 -8.907 67.3889
lradius 13.6607
lwrist -5.04153
lhand -24.4782 -43.1588
lfingers 7.12502
lthumb 2.01554 -13.1886
rfemur -19.224 -4.77694 19.1381
rtibia 30.1621
rfoot -2.01224 -21.7121
rtoes -0.232397
lfemur -34.3662 32.9791 2.43137
ltibia 88.6765
lfoot 27.1611 -19.3793
ltoes 1.02906
293
root -1.49976 1.86266 -7.4074 -56.8405 48.3323 33.7719
lowerback 21.2864 0.214006 10.6178
upperback 12.7852 2.7234 -1.50996
thorax 2.84905 2.45689 -8.13763
lowerneck -3.82571 2.61093 8.31858
upperneck 45.7728 6.46786 -4.32698
head 18.3221 4.58701 -2.24845
rclavicle -2.54444e-014 1.59028e-014
rhumerus 18.1892 -10.4747 -91.5425
rradius 6.06873
rwrist 33.8006
rhand -1.037 26.2842
rfingers 7.12502
rthumb 24.5967 -2.15551
lclavicle -2.54444e-014 1.59028e-014
lhumerus 11.6331 -9.03985 66.9926
lradius 13.6657
lwrist -4.76848
lhand -24.2435 -42.7845
lfingers 7.12502
lthumb 2.24221 -12.8165
rfemur -19.0369 -4.81665 19.9605
rtibia 30.2472
rfoot -1.5631 -20.9589
rtoes -0.69908
lfemur -34.1539 32.9204 3.2188
ltibia 88.6431
lfoot 26.3636 -20.6203
ltoes -2.5253
294
root -1.45076 1.85766 -7.40837 -57.0978 47.9753 34.1391
lowerback 22.6705 0.181553 10.7932
upperback 12.9059 2.89873 -1.6885
thorax 2.37329 2.56796 -8.53817
lowerneck -3.65116 2.4406 8.92467
upperneck 45.7625 6.36642 -4.95993
head 18.3255 4.5766 -2.68605
rclavicle 5.40694e-014 1.49486e-013
rhumerus 17.9498 -10.6621 -91.7779
rradius 6.30807
rwrist 33.919
rhand -0.942841 26.5482
rfingers 7.12502
rthumb 24.687 -1.87921
lclavicle 5.40694e-014 1.49486e-013
lhumerus 11.5966 -8.61237 66.8438
lradius 13.5849
lwrist -4.78863
lhand -23.505 -42.0736
lfingers 7.12502
lthumb 2.95539 -12.1143
rfemur -18.6114 -4.31922 20.5926
rtibia 30.4556
rfoot -1.2835 -20.3456
rtoes -2.34778
lfemur -33.1056 32.9226 4.18136
ltibia 88.3183
lfoot 27.2327 -19.0228
ltoes 3.35717
295
root -1.40621 1.85057 -7.41102 -57.2578 47.7292 34.6007
lowerback 24.0261 0.196694 10.4459
upperback 13.2562 3.03065 -1.5449
thorax 2.10167 2.63701 -8.26467
lowerneck -3.67406 2.45703 8.41106
upperneck 45.5242 6.50008 -5.02345
head 18.165 4.51706 -2.60113
rclavicle 4.77083e-015 3.33958e-014
rhumerus 18.2414 -10.3959 -91.5307
rradius 6.50834
rwrist 34.0319
rhand -0.880887 26.7886
rfingers 7.12502
rthumb 24.7464 -1.63069
lclavicle 4.77083e-015 3.33958e-014
lhumerus 11.9116 -6.46472 67.6115
lradius 13.0776
lwrist -6.42735
lhand -23.676 -42.0997
lfingers 7.12502
lthumb 2.79024 -12.1382
rfemur -18.3423 -4.03388 21.0805
rtibia 30.7994
rfoot -0.696227 -19.5768
rtoes -3.67972
lfemur -32.062 32.8448 4.93579
ltibia 87.9312
lfoot 27.3817 -18.2901
ltoes 6.64707
296
root -1.3644 1.85033 -7.41342 -57.2788 47.5273 34.7425
lowerback 24.8504 0.148532 10.4668
upperback 13.4569 3.08149 -1.62802
thorax 1.95853 2.68908 -8.41924
lowerneck -4.03596 2.55569 8.18603
upperneck 45.6653 6.50651 -4.62137
head 18.3191 4.51955 -2.36108
rclavicle 4.29375e-014 -1.59028e-015
rhumerus 18.4408 -10.3186 -91.7397
rradius 6.62807
rwrist 34.1464
rhand -1.01642 26.8977
rfingers 7.12502
rthumb 24.6165 -1.53939
lclavicle 4.29375e-014 -1.59028e-015
lhumerus 12.0661 -5.92917 67.5021
lradius 13.0178
lwrist -6.72383
lhand -23.963 -42.0844
lfingers 7.12502
lthumb 2.51313 -12.1195
rfemur -18.4223 -3.97227 21.6704
rtibia 31.1429
rfoot -0.220831 -18.8332
rtoes -3.68944
lfemur -31.6728 32.6886 5.44128
ltibia 87.6239
lfoot 26.7279 -18.7214
ltoes 5.73068
297
root -1.3242 1.85519 -7.42004 -56.9994 47.426 34.806
lowerback 25.2997 0.0986526 10.5793
upperback 13.5355 3.10044 -1.78409
thorax 1.86466 2.72251 -8.68704
lowerneck -4.32951 2.58166 8.17749
upperneck 45.7719 6.48271 -4.517
head 18.4586 4.51133 -2.30986
rclavicle -6.36111e-015 -1.59028e-014
rhumerus 18.4572 -10.3529 -91.9157
rradius 6.90296
rwrist 34.266
rhand -0.954353 27.0932
rfingers 7.12502
rthumb 24.676 -1.33569
lclavicle -6.36111e-015 -1.59028e-014
lhumerus 12.1342 -6.45221 67.0013
lradius 13.2127
lwrist -5.92892
lhand -23.4386 -41.8248
lfingers 7.12502
lthumb 3.01953 -11.8664
rfemur -18.753 -3.80305 22.2406
rtibia 31.3541
rfoot 0.313625 -18.4331
rtoes -3.70845
lfemur -31.8325 32.555 5.57953
ltibia 87.3481
lfoot 26.7308 -18.0446
ltoes 7.95639
298
root -1.30744 1.86904 -7.39071 -57.9224 47.3292 33.3737
lowerback 25.4741 -0.122172 10.8327
upperback 13.6837 2.8925 -1.57618
thorax 1.91356 2.63672 -8.55782
lowerneck -4.44404 2.55806 8.30848
upperneck 45.6938 6.47183 -4.70417
head 18.4547 4.49354 -2.4261
rclavicle -4.45278e-014 2.22639e-014
rhumerus 18.3768 -10.4061 -91.9814
rradius 7.33808
rwrist 34.3201
rhand -0.906322 27.2738
rfingers 7.12502
rthumb 24.722 -1.14879
lclavicle -4.45278e-014 2.22639e-014
lhumerus 12.2042 -7.20346 66.405
lradius 13.4264
lwrist -5.01822
lhand -22.645 -41.6997
lfingers 7.12502
lthumb 3.78592 -11.7535
rfemur -18.704 -4.25119 23.4565
rtibia 31.3759
rfoot 0.738738 -18.3887
rtoes -4.05477
lfemur -32.4682 31.8743 6.31747
ltibia 87.2367
lfoot 26.9308 -18.1505
ltoes 8.05583
299
root -1.31721 1.89125 -7.32796 -60.0295 47.2158 30.4619
lowerback 25.2141 -0.705913 8.76575
upperback 13.6016 1.60955 0.357718
thorax 1.41622 1.68838 -4.94582
lowerneck -2.53532 3.12403 6.03181
upperneck 45.3079 8.46641 -5.62733
head 17.8551 4.90069 -2.16201
rclavicle 1.59028e-014 3.97569e-014
rhumerus 17.2745 -6.69779 -90.4183
rradius 7.96836
rwrist 34.3144
rhand -0.422275 27.587
rfingers 7.12502
rthumb 25.1858 -0.771226
lclavicle 1.59028e-014 3.97569e-014
lhumerus 10.0265 -0.147614 68.7919
lradius 12.4773
lwrist -9.03485
lhand -22.5595 -42.6306
lfingers 7.12502
lthumb 3.86849 -12.686
rfemur -18.4439 -5.20683 25.2561
rtibia 31.3557
rfoot 0.644528 -18.5999
rtoes -5.12283
lfemur -33.482 30.5502 7.6155
ltibia 87.187
lfoot 26.2111 -20.0269
ltoes 3.19837
300
root -1.30928 1.91698 -7.29434 -61.623 47.2943 28.1476
lowerback 25.1439 -1.04759 9.63328
upperback 13.9125 1.35846 0.470816
thorax 1.81665 1.65387 -5.24312
lowerneck -2.93124 3.02714 6.26129
upperneck 45.1358 8.01186 -5.22855
head 17.7813 4.76201 -2.08006
rclavicle 2.38542e-014 2.38542e-014
rhumerus 17.817 -7.42277 -90.8172
rradius 7.78247
rwrist 34.2823
rhand -0.721839 27.7221
rfingers 7.12502
rthumb 24.8988 -0.676192
lclavicle 2.38542e-014 2.38542e-014
lhumerus 10.7399 -1.04219 68.3568
lradius 12.6195
lwrist -8.77415
lhand -22.8239 -42.7595
lfingers 7.12502
lthumb 3.61319 -12.8104
rfemur -18.3489 -6.1417 26.4963
rtibia 31.3916
rfoot 0.35589 -18.5056
rtoes -6.44125
lfemur -34.3625 29.1903 8.2839
ltibia 86.9621
lfoot 26.7038 -18.9912
ltoes 7.79369
301
root -1.28604 1.93632 -7.28118 -61.967 47.6746 26.884
lowerback 24.8094 -1.24569 9.51909
upperback 13.9734 1.03505 0.653974
thorax 1.98079 1.48043 -4.89622
lowerneck -2.90886 2.9968 6.13875
upperneck 44.8792 8.06658 -5.50222
head 17.6324 4.71859 -2.17939
rclavicle -3.33958e-014 -8.11041e-014
rhumerus 17.8266 -7.27252 -90.7114
rradius 8.09522
rwrist 34.3718
rhand -0.733749 27.9615
rfingers 7.12502
rthumb 24.8874 -0.438341
lclavicle -3.33958e-014 -8.11041e-014
lhumerus 10.7505 -1.04118 68.2953
lradius 12.7722
lwrist -8.66048
lhand -22.8882 -42.2965
lfingers 7.12502
lthumb 3.5511 -12.3463
rfemur -18.9667 -6.90427 27.0681
rtibia 31.574
rfoot 0.19129 -18.1067
rtoes -7.31108
lfemur -35.6072 28.3226 7.97048
ltibia 86.6933
lfoot 25.994 -19.1731
ltoes 6.81001
